<mxfile host="app.diagrams.net" modified="2020-07-18T10:09:54.628Z" agent="5.0 (X11; Linux x86_64) AppleWebKit/537.36 (KHTML, like Gecko) Chrome/84.0.4147.89 Safari/537.36" etag="y0yS3UU5eaL_2FYFZ11i" version="13.4.6" type="github">
  <diagram id="h1J5A3Yl5LOP8aUts5PZ" name="Page-1">
    <mxGraphModel dx="1422" dy="772" grid="1" gridSize="10" guides="1" tooltips="1" connect="1" arrows="1" fold="1" page="1" pageScale="1" pageWidth="827" pageHeight="1169" math="0" shadow="0">
      <root>
        <mxCell id="0" />
        <mxCell id="1" parent="0" />
        <mxCell id="GXCDOEfySHAIWeZHDer0-1" value="" style="shape=image;verticalLabelPosition=bottom;labelBackgroundColor=#ffffff;verticalAlign=top;aspect=fixed;imageAspect=0;image=https://cloud.google.com/dialogflow/docs/images/contexts-overview.svg;" vertex="1" parent="1">
          <mxGeometry x="80" y="20" width="645.06" height="490" as="geometry" />
        </mxCell>
        <mxCell id="GXCDOEfySHAIWeZHDer0-4" value="" style="html=1;shadow=0;dashed=0;align=center;verticalAlign=middle;shape=mxgraph.arrows2.arrow;dy=0.6;dx=40;direction=south;notch=0;" vertex="1" parent="1">
          <mxGeometry x="70" y="140" width="110" height="360" as="geometry" />
        </mxCell>
        <mxCell id="GXCDOEfySHAIWeZHDer0-8" value="" style="shape=image;imageAspect=0;aspect=fixed;verticalLabelPosition=bottom;verticalAlign=top;image=data:image/png,iVBORw0KGgoAAAANSUhEUgAAACEAAAFjCAIAAAA8YfXrAAAACXBIWXMAAA7EAAAOxAGVKw4bAAAgAElEQVR4Xu19WWxbV37+ueQlKe6LSIrUQlMkRVGidluKLEteYzlOnKYOMhkUHWTaadEmKNBBgQ4wQF/6MiiCFoOiTTMdDNCik8QeJ3HixHG827LlRau17xQlipRIkeIi7su99/ThVBzmkrzUODP/hz/yPQnn3HM/nu23nd+5wiCE4A8MFr3gD4DvOPaP7zj2j+849o//XzhwekEeIITxeHxlZWVpaWl9fd3n8+l0us7OzkOHDrlcLr/fj+N4U1MTjhd9VdGKLPx+/9LS0s2bN9fW1ra2tpxOZ0NDg0wma29v93q9w8PD6XS6urpaKpVyOBx6YwAA81hBCCGES0tLly5d+s///M/5+XkejyeTyUiSTKVSEEKCIEZGRj7//PP19fVEIkFvv4cS/SAIYmFhYXx8/Hvf+96xY8f4fP61a9cikQgAgMvlWq3WQ4cOxePx+/fvi0QiiURCbw8AYO4HACCRSHg8nkAgcPTo0Z6eHrPZrFAo0Jiw2WyZTFZZWSmTydbX1xFxQTBxQAjT6XQymYQQohGn1VIUhWEYhmEEQTDoUyYODMMEAgGfzydJcm1tLRgM0h4gCMLhcNjtdrVazefzabVZlJgPLpdrMpksFstnn33m8/nKy8t3dnYikYjb7R4ZGZmYmHj48CFFUd3d3Wq1mt54D0wcGIbhOG61Wo8fP/7pp5/evXtXIpFsbm7G43GSJCORyMTERCqVam5ubmlpkclk9PZZoAXKAIIgnE7nu+++29PTw+fzMQxDDblcrtFo/Id/+Iepqal0Ok1RFL3lHjBYfK4QIITJZHJzc3NjY8Plcnk8nkwmw+FwpFJpTU1NbW1tVVWVSCRisYpObWmOLDKZTCwW8/v9iEMoFKJ1nO1ZMZTmIEkyk8nE4/FMJkNRFL0aADabzefzy8rKiskSpjlHiEajKysrX3zxxdLS0s7OTj5NRUXFmTNnTpw4UVtbS6tCYOJAXZycnLx8+fL4+DibzS4rK2OxWLTBKSsrw3GcYT6YOAAA6XR6cnLyq6++qqysbG9vN5lM+RMgEonq6urEYnFuYS6YOCCEu7u7Xq8XAPD2228fPnxYq9UCAPInmc1mP7/+4HK5OI5zOByNRiOXywUCAf2JfaDoIAIAMAwrKytTq9Uajcbn80WjUfoT+wNTPxCHwWAwm82PHj1SKpUKhQKV0x7DcZxh2pk4EFKplNvtXlhYsNlsBoOhrKyMxiGXyw8dOtTe3q7RaHLLsyjNgfYgjuM+ny+VSnG5XBqHWq3W6XTJZDK3MBelOSQSSV1dncFgoFfsQaFQyOVyLpdLr9hDaVkSi8WYZ5vFYiFZUmz5Fi7Nxerq6vT0dE1NjU6nU6vVAoEgf38wY18cV69eVavVtbW1iEYmk8lkMolEIhKJ2Gx2ScrSHKlUamNj4/r167FYTCQSGY1GZCQePHiwrq5OKBSW5Cg9H5ubm3a7PRgMbm1tbW1teb3eYDC4u7ubSqUUCoVer7dard3d3dXV1cXsq9L9qKqq0mq1BEHs7Ox4PJ7NzU2bzTY7OzszM7O4uDg9Pe1wOCQSiVQqfX6OrFoWi8U8Hk+j0VRWVqrVaolEcu/ePb/fv7W1tbOzk0ql6C33UHqskD53Op1zc3NTU1Poh2MYptFoDAaD1Wq1Wq11dXUymYzH49EbAwD2wzE0NHTz5k2n05lMJpEEk8lkFRUV1dXVVVVVVVVVKpVKJBIxzHzpsVpaWvr000/X19flcnljY2NfX193d3d9fX1FRQWO4wyvzqI0R2VlZUdHRyqV8vv9i4uLQqEQKRWhUCgWi4vt7VyUHiuPx+NwOHw+39bWlsfj8fv9gUAgmUziOK7X600mk9lstlgsUqm0mMgqzQH2jAe/348W7szMzMzMzPLyMkVRlZWVra2tL730UktLSzGTl/2P//iP9LJvAkJIURRBEDiOS6XS2tra2tpapVJJkuT8/Pzy8rLX60WbUaVS0RsDAPbTj2QyGQgEbDbbysqKzWaz2WwejycajbJYLLVabTQaW1pajhw5UlNTU2wPluYYHBy8evWq2+1OJBIkSQIAxGKxUqmsrKxEy7eyslKr1fJ4PDabTW8MANjPulpYWPjiiy+4XK5OpzObzY2NjVar1WAwVFRUgDzdXhCl+zExMTEzM2O1WpVKpUgk4nA4aO2iX70fjtL98Hg8ExMTyMqSyWRisXg/781FaQ6/3z81NbW9vb2yslJXV1ddXV1eXl5eXi6TybhcbjF7JxelOZAzef369U8++UQikdTX1/f19fX29h46dEgul2fNXwzDivWv9Hx4PB4UJrHb7aurq06n0+fzkSQplUrr6+ubmpqampoaGhqEQmEx/6M0BwCAoqh0Ou12ux0Ox/r6+vr6us1mW1tbi0QiarXaYDAYjcaamhq9Xq/X68vLy2lCfl8c6BmCINLpdCqVikaj09PTN2/e/PLLL4PBIIfD4fP5JpOpra3tyJEj3d3dFRUVubLrd+BA0z4+Pj42NrawsOByudhsdkNDQ2trq8FgsNlsqPDHP/7xqVOnjEZjtnlpDrvdPjU1ZbfbnU4nshm4XK5MJtNqtXq9/sCBA1VVVQqFwuPxDA8Pf/3119XV1efPnz9//nz2DaXX1eLi4qVLl1ZXV5PJJI/HU6lUbW1tra2tLS0ter0+67EjdRuJREZGRjweT+4bSnMsLy8PDg42NTUdOXLk8OHDHR0dyIXNt97kcnlra2ssFqMJ+dJjNTMzMzs7q9VqKyoqlEqlXC7PfTtBECRJYhiG43gqlQoEAn6/X6FQVFdXZ99Quh/ILa+rq1MqlfmWx/r6utPpZLPZFotFrVYjK4L2TGEOCCFBEJlMBgBw48aNDz74QK1WNzU10UJYAIAnT57cvn1bJBL96Ec/KqYHi3K4XK6hoSEAwOzsbDgcHhwcdDgcQqEw9xmCIO7fv7+8vNza2vrbxnkoyrG2tvbrX/8aAGC323d3d2/cuCGRSHKlBYQQQuj3+yUSyaFDh8rLy3/b/psoypFMJpFnHo1GCYIIhULpdJqm6TAMUyqV7e3tx48fRyqrIAqvK4qiEonE7u4uAOAXv/jFpUuX/umf/slqteZrbDabzeVykSNSTM4X7geGYQKBAHn8LS0tHo8HaY7c+ciCIIh4PM7n84vZV0U5sn+rVKr6+nrkVeaWoznf3Nzc3t6GEJpMJqVSma3NRWEOGjAM4/F4LBYLDSyGYRBCkiSj0ejdu3efPHlSW1uLjBV6SwDAfjhsNtvly5cjkcirr77a1taGBj0cDttsto8++mhsbIzH4/X39+dvnSxKcyA3YGBgAACQSqU6Ozs3NjZQ1HVsbEypVHZ3dzc3N38rjoMHD6bT6Z///Oe3b98Oh8Nyufzhw4e3b98eGRlpbGx8/fXXX375ZaVSWWxRgWJrNxeZTCYQCIyNjX3wwQdjY2NqtXpra0ulUh05cuT73/8+Eun5MjgXpfvB4XAUCkVnZ2c0GuXz+bdv3yYIwmQynT9/vrGxUSwWM/QAgc6RSqV8Pt/Ozk48HqdV8fn86upqDMOQ8kgkEtPT02w2GykupVJZLIJGHyu32/3VV1/dvHnTZrPllgMAIITpdDocDgcCARzHFQoF8qO0Wu25c+fOnDljMploTRDo/UBORlVVFTLRaaAoiiTJdDoNAOBwOCguplKpmOM+dA4+n282m7lcbigUolUVg1AoNJlMDHFR+lgVBHomP3qcW/g7y8R8QAhjsVgikci+FBEnk8l0Os1isTQaTb5URijNEYlEnE7n4OCgy+WKRCLZfqM/MpmMWCxua2vr7e19fg6Xy3Xnzp0LFy4EAoFEIhEKhXg8XllZGY/Hi0aj8XgceWxoIRREaY7R0dGPPvoIw7CXX35ZJBLdvn0bOW1VVVWTk5OTk5MymezYsWMMepCJA0IYjUY3NzfD4fA777xz8ODBYDA4PT1tNBoPHjzY2tra0dFx4cKFpaWljY2NioqKYkur8EpAgBAiKx1C+MILL7S2tqITPKQqDAZDV1dXfX09l8udn59nWOtMHAD8n3eEYRhal2w2WyAQJBKJWCyGamUymUgkWl5eRsq/IJg4MAwTiUQqlYrL5X799deLi4tcLre+vn5lZWV2djYej4fDYZfLtbm5KRKJfod9TgOXyzWbza2trYODgwqForu7u7Oz8/Hjx+hYkCCIx48fp9PplpYWFIoviBL9wDCssbGxv78/Foutr6/HYrG2tjaDwbC5ufn++++///77y8vLBw4cOHz4cDFlDvYjS9Lp9O7u7sLCQllZGdK7DodjYmJidHQ0mUw2NDQcOnSosbERGRX0xgCA/XAAAAiCQKuLy+UKBIJ0Ou33+91uN0EQSqVSrVYzx/r2xfEtUbh3v198x7F//L/gKLHPAQBra2srKysMy6+srAyF+0QiEb0OALAfjqWlpcuXL+ebKRBCVKhSqfr6+gQCwfNzrK+vI9uQVk5RFDqnMhqNOp2uqamJ9kAWpTlOnDihUqnyjRKCINxu940bN0KhELPtU5qjvr6+vr6eXgoAOnUJhUIjIyOJRCK/o1k8/7rCcVyj0dTX16tUqqGhIeQEF8TzcyBgGEaS5O7u7reySwKBgM/noxVCCJFfMjo6urW11dnZmR9KyaI0h91uf/ToEW3OkTmxvr4+MTEBIWxsbJTL5bkP5KI0x/Dw8Lvvvkub0uyWrK2tPXXq1Isvvljs0ADsR38MDQ3dv38/f+2yWCyBQKDRaIxGY1NTE0M8uTRHIBAIBAICgYDm9KGjYAghRVEsFutbnQknEoloNKpSqYRCYf5b3G633+/n8/kVFRXFZEnh3uXiwYMH//zP/2y32wtmvM3NzV2+fPnjjz92OBz0uj3QfxcCRVEej2dubg4AcP/+/cHBwY6OjvwYGYTw7t27k5OTRqMx30fNojAHhNBms/3qV78CACwuLgaDwatXr6KDgtxnCIJYW1ujKKq7u/t58sgSiYTL5QIA7O7uEgTh8/ni8ThtPjAM02q1TU1Nb7755oEDB3KrclF4XVEUtb6+Pjg4CAC4fv364ODgW2+9pdPpaB44Moi1Wm1LS0tZWRktSpdF4X6wWCyDwYDyJFAM6fXXX7dYLAwCnAGFOXLR1dWFYsIMljkzCo9VLoLBIDre5PF41dXVTU1NyJt6+vRpOp1GVr3ZbM7fOlkUrcgC5Xh99dVXOp0Ox3Gr1To2Nnb79u2hoSEWi7WwsLC1tSWVSgtGsRGY9iDaAVNTU7/+9a9v3ry5ubmJYRhBEFeuXLl582YikZBIJNPT0xcvXlxYWGDI5SzRj3Q6bbfb7Xb7D37wAxR1sdlsdrvdaDT+9V//tUaj+fLLL0dGRsbGxqqqqoq5IEwcEMJEIoHc8sOHDzc2NlIUNTs7SxCEXq/v7u4Wi8Uo18jlciEPsSCYxgoAkMlkMpkMi8VSKpV8Pj8UCj179kwkEtXU1EilUhaLhY49U6lUvgGWBRMHhmFCoVAoFEII7XY7EvKPHj2SSqXoeANC6Pf7vV4vQ8IEYB4rAACXy62trdXr9RcvXhwYGEgkEjab7ezZsyaTaXt7+8aNG9evXw+FQl1dXQx6sEQ/cBxvbGw8efJkPB6fnJxcXV21WCxtbW2VlZV+v//u3bt+v99sNre3t38rfd7c3IyOypeWlrhc7rFjx6xWK5fL3draisfjR48efe2113Q6XbFDTrCffQ4hRE5mLBZjsVhyuVwkErFYrFgstrq6KhKJFAoFm81G+Rr0xgCA/XCgVBuz2czj8XL1OdIfdrt9Y2ODzWZbrdZioR+m+UBYWFi4evWq0+lMJBJo5wMASJJMJBJOp/PmzZsXL14cHR0NBAL0lnsoPR8ovz0YDL7xxhudnZ3IwIlEIsvLy7/85S/Hx8elUunLL79cLAgH9sNhMpk6OjqePn2KYVgsFjt27JjNZnv69On9+/eXlpYsFktfX19bW5useK5zaY7m5ubz58//8pe/HB0djcViHA5nZGTkyZMnCwsLLS0tf/zHf3zq1Kny8vJiBhwAe8KVASRJhkKhhw8ffv/731er1WazWSqVNjU1/eQnP5mfn0f521TxZGoIYek8GbQTpVKpQqHgcrnT09NcLrevr+/P//zPDQYDn89n5WX00kAfq3g8js6w8/UBuoYBAIAQ7u7uLi4uolNUFOuvqqoqNu30/eF2u69du3b79m273Z5bjpBOp6PRqN/vZ7FYuTH9s2fP9vf3557L54LeDzQsKMmOVgX2YvqZTAYNII7jGIapVCpp8csfIJ9DKBQ2NTXJZLJwOEyrKgaBQKDT6RjOo+hjVRAURaXT6Xg8Ho/HU6kUj8cTi8USiSSTyRAEgWFYfsJtLuj9KAiCILxe7+Tk5OzsrMPhqK2t7enp6enpQb4zm802mUzFjESwHw6PxzM1NXX58mUUsI5Go+FwWK/XZzKZlZWVBw8epNPpH//4x3K5vJiJVXxz7m1Pm8128+bNsbExkiQ1Gg0K5aOVzeFwNjc3R0dHFxYWGOavMHMWJElOT0/fuXOnu7v7T//0T1Uq1Ycffri1tQUAKCsrO3z48MzMjMfjuXfvnkKhKBbiLdGPcDjs9XozmczZs2fr6uryJ1ahUCiVSq/XW9DLQmDiAHuKiCRJlNyeL/gymQy6x0QrzwW9TS7QohSJRDiOr62tbW9vJ5NJ5ETDPQXscDi2t7crKiqex49CKCsrMxqNer3+v//7v4PBoMFgIAiCoqhkMulyuW7cuHH79u1YLNbb21ss8RzsZw8uLS0NDAx8+umnLBaLzWZ7PJ5EIqFWq/V6vc1mEwqFnZ2d77zzjkqlKmbGlegHAKC2tpbD4fj9/tHRUYfDEYvFkNcbCAQUCkVPT8+ZM2cqKioY5FXpfqBdQhCEw+FYWlpaXFxMJpMovt/V1aXVaoVCIbMKKc0RCoUikUh5eTlJkijXnSRJdBQsl8tTqVQymeRwOBKJpKysjN4YALCfsZqbm5uYmDh37pxGo8mf2NXVVWQ/Hjp0KDePKBeFOSCEmUwGbat79+599NFHBoOBxWLlCnA0AOPj43fu3BEKhVqt9nfjoChqcXHxypUrAIBHjx7t7Ox88sknjx49yh0NNEmjo6Nut7u3t7eYQATFOCCEXq/30aNHAIC1tbVEIjEzM7O+vk7L9wEAxONxo9H4PGeQGIbxeDwk47xeL5vNlkgktHgJAAD5V83NzSdOnGCw4QqvKyQqUCjn3//93y9cuPAv//IvBfOvWCwWjuNlhe40ZcHUD7RvX3jhBZIk6+rq0KUJ+qP7QOF+5MLpdLpcLrVaTVFUQWMFbQ6G/VGagyCI3d3d6enplZWV7e3tfP9VKpW2trY2NTX9brlquUD3vO7cueP3+wmCyB/3yspKFotVU1PzPBxo5ufm5u7cuUNRVEdHR2VlZX5KjEwma2hoKGaIAmYOAEAqlVpbW1tbW/uLv/iL8+fPt7S05PejJJj0IIQwlUplMhmBQICyy/N17X7A1A8MwwQCgUKhKC8vT6fTJEn+rj1AYOIAAPD5fJTBPjk5KRaLKYrKnw8Wi4VSKIqJrMKlWWAYptfr6+rqfvOb3/h8vqNHjwry7i7x+Xx0rlYs2sjEgd41Pz//xRdfbG5uXr169cmTJ/n90Gg0Z8+ePX369PNwIKhUqo6ODoZsTaVSKZPJvpU+DwaDOzs7uSWoSbY3OI6LxWKxWFzMLinNQRBEVkyhh9ECy3UG2Gw2+9vkFOE4TpKky+VaWlqy2+0ejwfZDGKx2GAwNDU11dbWIqeN3nIPpTni8bjL5bp79+7IyMji4uL29jbYW691dXXHjh07evSo1WrlcDjF+lF6rBYXF69fv/6v//qvfD6/vr4ehdYjkYjD4RgbG8NxvK+v72c/+xmDj1O4FAFCCCGcm5sbGBhAN8S7urrKy8vZbHYmkwmHw2tra9euXVtZWRkcHOzu7q6srKS/AgDAzAEASCaTa2trq6urb7311iuvvNLY2Aj2VhRFUSgl9tatW1NTU2azuRhH4RFEgBAij58giKNHjx44cADDsOzcInPLZDIZDIatra3nj++i5D2CIEKhUMFboehEjGHCATMHhmFlZWVKpVIkEg0MDMzPz2dz1SiKSiQSCwsL09PTPp/PYrEw2D5M84FhGJ/PNxqNdXV19+7d43A4BEFotVo2m42U/OPHjycnJymK6uzsZIjvll67brf76dOn77777tbWFpfLraioQClYPp8vFAo1Nze/+uqrf/ZnfyYWi4uFAUpzpFIpr9f75MmTiYkJu90eDoeRICkrK9Pr9e3t7R0dHXV1dcU2B9gPB0VRKNyzvLy8vLy8ubmZyWTKyspUKlVjY2NlZSXq1reK72YyGZIkuVxu7sIFe/IxlUoFg0Gn02kwGJ7n/APh8ePH4+PjKJiY+0tJkkQ5EzMzMyhx/Pk5NjY27ty5gyLtKFoNAAgEAjabbXBw8MmTJyjJupjyAPvhYLPZu7u7//Vf/5VOpwUCQU1NTSwWm5mZuX79+pUrV4RC4bFjx7q7u4t1AuxnPlwu15MnT9577z2SJLu6ut5+++0bN27cvXt3dna2vb393LlzJ06c0Gg0HA7nW63d7e3t27dvo6M1s9lst9txHK+vrz916lRHR4dOpythPCIBngVyANLpdCoH8Xjc5/O9//77p06dEovFUqn0jTfeQAcs6AG09mivyoI+HygWgqzCbCGEEADQ398vkUhQtEkoFEql0kQiQVEUi8XicrnIlfrti3JAHyufz3f//v3Hjx9vbGzklgMASJL0+/1LS0soXmI2m9F7VSrV8ePHe3t7dTodrQkCvR8kScbj8YJ5KwAADMMsFgv6OxaLIZ3BZrPj8XhBFwuBziEWi7u6ujQaDUN8kAaBQKDX6xnuytDHiiTJZDKZYjxTpKGkTU3n+EOg8Er4/eI7jv2j8ErIBZIH4Jt3AZCAyq4XmvqioTQHACAcDo+MjExOTi4vL3s8HovFcurUqZMnTy4uLiJDoq+vr5iiBfvhcLlc4+PjV69e3dnZCQaDDocjlUrV19dTFBWPx0dHR6PRqNlsVqvVxdQU03xACCmKmpub+/jjjx8+fIjjeHNzs8ViQTlQbDZbJpNtb28PDQ0tLi4yyIUS/chkMktLS/Pz82+99dbx48cxDPv000/9fj8AAMfx2tra9vZ2v9//4MGDioqKYmZciX4kEolgMJhIJDo6OiwWi0qlQgllYE+EoBx6n89X0BpGYOIAAJAkSVEUMnxpqhRCSBBEIpFIJBJ48Y/JAGYODMNEIpFIJIIQzs/P53u3yWTSbrevrq4Wu5KHUGI+cBy3Wq2dnZ2ffPKJw+GoqKhwOByhUGhpaQllrzx+/FgoFPb29jLERUvLXbvd/vjx44sXLyKNvb29nUqllEplTU3NxsaGVCrt7u5+5513GMIApTkghMFg8M6dO1evXh0eHvb7/RBCDMMEAkFTU9Prr7/+0ksvodgZveUe9sWB/Ci/37+zs+P3+9PpNI7jEolEpVKp1er864s0FObILcw2pigKBeEJgmCz2Twej8EWyQV9ziGEEEKHwxGPx+VyeXl5eTgcdrvdtMdyweFw5HK5TCYrFnstwEEQxH/8x38sLCz09/e//vrr9+/ff++99xjMDq1W+8orr5w5c2a/Z9sYhrFYLLVaHYlElEolig/X1NQwmBAqlYphUYF8DgAAi8U6dOiQwWAwGo1CodBoNJ47d67gtCGIRCLmnO3Cc05D9hmGhxnUVIF+FASEMBKJIAOXVsVms/l8Pp/PLzZcpTlCoRC6iIo+KZLPIZPJ2traWlpaiokTJg40Muvr619//fXFixcDgQCSwbQxQcdQOp3ueTgAAARBDA8PX7hwgcfj/dEf/ZHFYsnf0iKRqK6urpiCAswcEMJYLLa9vR2NRr/3ve/19PQcOHAg32XCcRypgNzCXDBxgL0PhfH5/N7e3vb29mKn8MxgkjYYhgmFQrFYXExI7BNMHAAADodjtVq7urpu3LgxNzeXyWQYtkgxMI0VhmFsNhvDsHA4/OzZs0Qisbi4yMn7Xp9QKDSZTHq9vlgIi4kDwe12j4+Pe73elZWVS5cu5Ydyq6ur33jjjddee+35OfR6/UsvvZROpyGE6O00DoVC0dDQ8K3kldPpLJjDlAWPx9NoNCjJnl4HANgPB9gzStPpdK4WQQ0pioIQIpH1/PIKAAAhTKVSW1tbSJxkCyGEyWSSJEm01YuFZUpzeL3eubm5L7/80ul05gZxUT8IgigvLz9+/LharX4eDvQWlEx9//59NBROp1MkEiEzNxAIeL1etVp95syZYo4zYOYAAFAUhc45Gxoazpw5IxAILly4UF9f39bWZjabUfI2hmFHjx4tdsgJmPc5hDAcDvt8PgzDfvCDH/T39xsMBolEgoxEq9V6/vz5Q4cOURT19OnTgrEPBCYOsCcTAQB6vR7dzEYLFDk4Op2uurqax+MtLCw8/x1eHMd5PB6LxfJ6vdFolM1mKxSKUCi0s7OTTqfT6TSbzWaxWM/vf2AYJhKJNBqNUCj87LPPnj17hmGY1WpdXl4eGxvzer1bW1vLy8sOh0OhUBRzBkHJOWez2c3NzSdPnnz48OGBAwckEklXV9e9e/eGh4c9Hg9FUSsrKwKBoKenh2HOmTiQXKqrqztz5ozb7UaRHbPZ3NPTc/fu3ampKYqiVCpVV1dXR0cHQz51aVkCISQIIhgMUhTF5XJlMlkmk1ldXZ2YmEgmkxaLpbGxUSKR5OvgLEpzgD2LHULIYrE4HA6EMBaL7e7ukntf9uHz+d8q3o6+OFdRUYFOnGi/99mzZzabDcX3i9k+TOsK4d69ez/96U/fe++9x48f+3y+zDe/9Ds9Pf35558PDg7SPNJcMM05AkEQOzs7Dx48cLvdMzMzf/mXf4mOWejPFUdpDgihQCDo7u6ORCJPnjwJh8P9/f3t7e3FspTyUbQRpnEAAAvPSURBVJoDACCVSs+dO+d2u589e3bt2rVEIhEOh3t6ejQaTb75m499ceA4rlKpTp06dfr06f/5n/8ZGBiYnJxcWVn54Q9/+HvjQEaQUChsbGz8q7/6K6PRODIycu3ate3tbfSlE+bFuS8OBBaLhZJCxWKxXC6/cePG+Ph4KBSSy+XMvSnNwWazuVxu7rawWCxarba9vf3nP//50NBQKBRi2ORgP99ojMViIpHohRdeUKlUWcMXxQCamppqamqqq6vb2tqMRmOxdJzS+9zpdHo8ntraWolEkistkBxzOBw+n0+lUmk0mmLuAZ2DIAiUN43U336AloNAINivfRUOh0dHR5H3R6sqBrlc3tnZ2d7ertVq6XUAgHyOTCaDzOf19XVUQhBEKpUKhUJCoVCU88FdkiTD4TBFUTqdzmg0MvSbzsHhcNRqtclkyhqvm5ubq6urBEFoNJoDBw5kOQiCQF/X8/l8vOIfswRgz6QsCIqiKIr67LPP/uRP/uRv//ZvHz16lFubyWS2trb+7u/+rq+v79GjR4FAILc2FyVkeyKRWFtbs9lsvb29tNuULBZLLpdbLJbKysrBwUGG+WPigBCmUqlgMBgIBPK9QhR75fP5EEKHw4Hu1BcEEwcAgKIoFAVzOBzoQ74URUEIkfbd3d31+XyBQIDFYqHHCqJoBQAAwzCJRFJdXS0Wiz/88EOUSpJOpxGB1+v9/PPPb926tbOzg6QAvf0e6HswF6hqdHT06tWr169fR1fhlEoljuMkSaL7kSRJWq3Wv/mbv9HpdMX2OX3t5gKtUYvFgmFYKBSam5sbHx9PJBIYhrFYLBzHxWIxyqc2Go3FjBLA3A8ECCFBECgkjdINCIIQCAQVFRXocpxEIkHObjHRW5oDXcCorKzMZDLoNgNFUTiOl5WVyeVyPp/P4N0glKgGACwsLAwMDFRXV6tUKqVSWV5erlarRYwfwqGhNMfExMS//du/YRhmMpmampqam5tbW1sPHDggk8lwHMdxHLkH32qs5ufnh4aGVldX3W63x+PxeDwYhpWXl+v1+oaGhoaGhrq6upqaGrz48URpjlgsFggEPB7P9vb29va2x+Pxer3hcDiRSEQiEbFYbDKZTpw40dzcXMw9KD1WQqFQKBSiEG8qlYpGozabbWZmZnh4eGRkJBKJrK6uKhSK58ytpSEWi6Hg5cjIyLNnz5aWlvh8fnt7+5EjR3p7e59znyPY7fapqanV1dX19XW/309RlEgkQtfXqqurNRqNVqutqalhWGml+7G0tPTxxx/Pzs4Gg0GxWNzS0tLY2IjualdUVOSHMPNRmmNlZeXGjRvRaNRkMvX19Z0/f76pqUmlUiELITsMDEz7GquJiYmVlRWn07m9vR0MBlGiq8ViaWhoMJvNVVVVvG9eJ6WhNAfKotjc3HQ4/u8Dv8g5R/1Ayv/gwYN6vT4/wx6hNAfICfGk0+lkMrmwsPDs2bPHjx8PDAxEo9H6+vq333779OnTtc/xf0xyASHc2dlZX19fXFycmpqamppCd7s0Go3ZbNZoNAzx2dL9mJubGx4ezk5GLBZDJ1EikUir1Wo0Gp1OV19fr1ari8X6SvdjZWXlypUrKKogEAhQhgz6kI3JZJJ88wOtBVGaI5FIQAhffPHF9vZ2q9WKzLiSsjYXpcdqY2NjY2MDnZxJpVKUs72fV2dRmgNCmE6ns5NBqyUIAvlXVVVVxdZu6bFKp9Ner3dwcHB+fh7NCirHMAzpeaFQePDgwTNnzjw/x8zMzJdffnn16tVUKgUAiMfjHA6Hx+NxOBwUqKmtre3t7WWYeSYOCCFJkgsLC4ODg1VVVeiLSAMDA1VVVQaDoaamxuVyDQ8PZzIZlAlJb78HJg6w9485nE7nT37ykxdffDESibjd7tbW1r6+vs7OTpfL9d57701OTuYfJuSisAZGgBBGo9FoNIrj+MGDB5GbhGEYSZIkSeI4Xl1dbbFY5HL5wMDAc9rtAAAej8flciGEkUgklUpxOJzy8vJgMOj3+zEM43A4aBr8fj9DzJJprDAM4/P5KEf4yZMnSH6YTKbR0dHp6WmUxrK2thYMBg8cOMBgyRWtAABgGMbj8QwGQ21t7QcffECSZH9/f2dn55UrV+x2O9o3AwMDgUDgzTffLHbAApg5ENrb20mS/PDDD5G53tjY+Morr9y/f/83v/lNJpNRKBQvvvjiiRMnigXhADMHEgFisdhisbz22msqlUqr1cpkslOnTsnlcvQBEJ1O19raWlNTwxDfZZIlEMJMJuNwONxut8FgUCgU2U2AYuQkSXI4nGLmSBZM6wpCGA6HP/vss5/+9KdDQ0PBnP9Fx2KxuFwuw9lNLpg40JxjGLa7u7u6uprLgWEY8gEZtl4WTPMBAODz+SiVYGpqqrq6msMp8Gl4HMdFIpFYLC42aCU42Gx2eXk5iojt7OxMTU0J8/6xj1QqbWlpsVqtz2Pvonf5fL7l5WWKopaXl7e3t/P7odVqORyOTqd7Hg4EvV7/8ssvk8XzMhQKRf6nmHLBtHZpgHsRFAjh73POc4F8co/HQ5Ikj8eTSCRyuXw/a7c0BzqYGB0dtdlsm5ub6BgSrSWNRtPc3Gy1Wpnzlkpz7OzsTExMfPjhh0tLS7u7u8jvQyqEx+N1dnb29/e/9NJLyEunNwYA7IdjbGzsV7/61dDQUFtb22uvvdbQ0MDlcqPRqMPhGBwcHBwcXF1dNRgMDFdAmDgghIlEYmVlZWVlpb+///Tp0+hMiM1mZzKZSCTS2dl56dKl2dnZhw8fymSy5+RIJpOBQCAWi508efLo0aN6vT63tr6+fm1tzePxrK6u5n8nJAsmeQX2xDufzzebzflJGSwWS61Wo4QQhj3AxIFhmEgkqqysrKiosNlsKL0yFxRFIXe9ra2NIWebaawAAFwuV6lUSqXSW7duRaPRhoaG7L4jSTIUCg0PD7vd7ng8Pjs763K50M/SarW5sV4mDvQuHo8HIbx7967L5ULf3kDlKC66trZGkiRyedDmr6mpOXbs2H45EDwez/z8PIRwdXXV6XSCPW4IIfLeAAAPHz5EhWw222q11tXV5b6htLyamZkZGxvLmtLMwDCsvLwc+bu/LSzGASGEEEajUQghh8PJTRNEQf9UKlVWViYUChk8QQSmsSJJEg23UqnUarVZDrfbbbfbt7e3a2pq6urqil2Fy6IwRyqVmpmZuXz5MrpQd+7cOZTjt7m5OTAwcP36dZvNlkql+Hx+W1vbyZMnz507xxAGKMxhs9kePHhw69YtiUQiFotFIhGGYZFIZGFh4cKFCz6fj8/nV1dXBwKB6enpdDqNgpfF1BSdA03PyMjIo0ePksnkW2+9dezYMaPRyOPxNjY2xsbGbt269eabb77yyittbW2Li4sffPDBs2fPpqen0TEL7W0IdA6EmZmZaDT6ox/96PTp03q9Ho3DzMzM5ORkZWXlq6++eurUKaFQqNFo7HZ7KpWanp42m837PWNBqx4l0DY3N2s0GoFAACEkSXJlZcXlch08eNBoNKIPRQkEAo1GI5VKt7e3E/v/Dgt6HUEQGIZJJBKk3UiSRJnt8Xi8r68PEaDnkQuCgvDfeFEO6BwYhuE4zuFw0OZA5kgikZibm9vc3OTz+X19fbkCGGVnCASCYkoQFORgs9k6nQ7DsM8//3xtbc3v96+trX388cder1ev1xsMBjS3BEFsbW3Nz89vbm42NjYWU1Agfz4wDMMwrLW1dWNjY3BwUCaTabVar9f78OFDnU7X09Mjk8kwDPN6vcvLy1NTU7Ozs2VlZW1tbfna5bdAMoOGra2tX/ziF1VVVej4BoVifvazn62vryP76uHDhz/84Q9ramqampr+/u//HgXh6W/ZA70fCAqF4uzZszU1NaOjozs7O0KhEF0PzzpLyWQykUh0d3f39fWdPHmSwcEBDDIRHXiurq5Go1Eej1dbWyuRSLLvWl5eHh0dFQqFFovFYDBwGP3zohy/R9DX1R8C33HsH99x7B/fcewf33HsH99x7B/fcewf/wsfFNAjvWdORAAAAABJRU5ErkJggg==;" vertex="1" parent="1">
          <mxGeometry x="108.76" y="150" width="28.59" height="307.5" as="geometry" />
        </mxCell>
        <mxCell id="GXCDOEfySHAIWeZHDer0-9" value="User 1" style="points=[[0,0,0],[0.25,0,0],[0.5,0,0],[0.75,0,0],[1,0,0],[1,0.25,0],[1,0.5,0],[1,0.75,0],[1,1,0],[0.75,1,0],[0.5,1,0],[0.25,1,0],[0,1,0],[0,0.75,0],[0,0.5,0],[0,0.25,0]];rounded=1;absoluteArcSize=1;arcSize=2;html=1;strokeColor=none;gradientColor=none;shadow=0;dashed=0;fontSize=12;fontColor=#9E9E9E;align=left;verticalAlign=top;spacing=10;spacingTop=-4;" vertex="1" parent="1">
          <mxGeometry x="349" y="540" width="130" height="70" as="geometry" />
        </mxCell>
        <mxCell id="GXCDOEfySHAIWeZHDer0-10" value="User 1" style="points=[[0,0,0],[0.25,0,0],[0.5,0,0],[0.75,0,0],[1,0,0],[1,0.25,0],[1,0.5,0],[1,0.75,0],[1,1,0],[0.75,1,0],[0.5,1,0],[0.25,1,0],[0,1,0],[0,0.75,0],[0,0.5,0],[0,0.25,0]];rounded=1;absoluteArcSize=1;arcSize=2;html=1;strokeColor=none;gradientColor=none;shadow=0;dashed=0;fontSize=12;fontColor=#9E9E9E;align=left;verticalAlign=top;spacing=10;spacingTop=-4;" vertex="1" parent="1">
          <mxGeometry x="180" y="530" width="160" height="70" as="geometry" />
        </mxCell>
        <mxCell id="GXCDOEfySHAIWeZHDer0-11" value="User 1" style="points=[[0,0,0],[0.25,0,0],[0.5,0,0],[0.75,0,0],[1,0,0],[1,0.25,0],[1,0.5,0],[1,0.75,0],[1,1,0],[0.75,1,0],[0.5,1,0],[0.25,1,0],[0,1,0],[0,0.75,0],[0,0.5,0],[0,0.25,0]];rounded=1;absoluteArcSize=1;arcSize=2;html=1;strokeColor=none;gradientColor=none;shadow=0;dashed=0;fontSize=12;fontColor=#9E9E9E;align=left;verticalAlign=top;spacing=10;spacingTop=-4;" vertex="1" parent="1">
          <mxGeometry x="510" y="530" width="160" height="70" as="geometry" />
        </mxCell>
      </root>
    </mxGraphModel>
  </diagram>
</mxfile>
